<?xml version="1.0" encoding="UTF-8" standalone="no"?>
<!--Scalable Vector Graphic-->

<svg
   version="1.1"
   id="svg1"
   sodipodi:docname="img-logo-donuts-black.svg"
   xml:space="preserve"
   inkscape:version="1.4 (e7c3feb1, 2024-10-09)"
   width="55.474365"
   height="56.282745"
   inkscape:export-filename="logo-all.png"
   inkscape:export-xdpi="666.11279"
   inkscape:export-ydpi="666.11279"
   xmlns:inkscape="http://www.inkscape.org/namespaces/inkscape"
   xmlns:sodipodi="http://sodipodi.sourceforge.net/DTD/sodipodi-0.dtd"
   xmlns="http://www.w3.org/2000/svg"
   xmlns:svg="http://www.w3.org/2000/svg"><defs
     id="defs1"><rect
       x="32.505356"
       y="257.17471"
       width="62.324394"
       height="18.281504"
       id="rect4" /><rect
       x="32.505356"
       y="257.17471"
       width="62.324394"
       height="18.281504"
       id="rect4-6" /><rect
       x="32.505356"
       y="257.17471"
       width="62.324394"
       height="18.281504"
       id="rect4-7" /><rect
       x="32.505356"
       y="257.17471"
       width="62.324394"
       height="18.281504"
       id="rect4-2" /><rect
       x="32.505356"
       y="257.17471"
       width="62.324394"
       height="18.281504"
       id="rect4-3" /><rect
       x="32.505356"
       y="257.17471"
       width="62.324394"
       height="18.281504"
       id="rect4-69" /><rect
       x="32.505356"
       y="257.17471"
       width="62.324394"
       height="18.281504"
       id="rect4-3-4" /><rect
       x="32.505356"
       y="257.17471"
       width="62.324394"
       height="18.281504"
       id="rect4-4" /><rect
       x="32.505356"
       y="257.17471"
       width="62.324394"
       height="18.281504"
       id="rect4-3-1" /><rect
       x="32.505356"
       y="257.17471"
       width="62.324394"
       height="18.281504"
       id="rect4-69-7" /><rect
       x="32.505356"
       y="257.17471"
       width="62.324394"
       height="18.281504"
       id="rect4-3-4-1" /></defs><sodipodi:namedview
     id="namedview1"
     pagecolor="#505050"
     bordercolor="#eeeeee"
     borderopacity="1"
     inkscape:showpageshadow="0"
     inkscape:pageopacity="0"
     inkscape:pagecheckerboard="0"
     inkscape:deskcolor="#505050"
     inkscape:zoom="3.0948082"
     inkscape:cx="-3.5543399"
     inkscape:cy="46.367979"
     inkscape:window-width="1480"
     inkscape:window-height="916"
     inkscape:window-x="39"
     inkscape:window-y="38"
     inkscape:window-maximized="1"
     inkscape:current-layer="svg1" /><text
     xml:space="preserve"
     id="text4-3"
     style="font-size:10.6667px;line-height:1.2;font-family:'Courier New';-inkscape-font-specification:'Courier New';text-align:start;writing-mode:lr-tb;direction:ltr;white-space:pre;shape-inside:url(#rect4-6);display:inline;fill:#4d4d4d"
     transform="translate(-341.1192,-30.738814)"
     x="23.424082"
     y="0" /><path
     style="fill:#4d4d4d;stroke-width:0.942694"
     d="m 25.221189,56.108054 c -0.16685,-0.0966 -0.35351,-0.249791 -0.4148,-0.340345 -0.21138,-0.312296 -0.11729,-1.102452 0.1613,-1.354575 0.36818,-0.333186 1.13065,-0.319263 1.44343,0.02639 0.29679,0.327944 0.32907,1.079271 0.0615,1.429652 -0.2558,0.334878 -0.87991,0.454028 -1.25136,0.238908 z m 3.59308,-0.131689 c -0.69712,-0.649478 -0.21965,-1.874481 0.7202,-1.847755 0.66601,0.01895 1.07136,0.413531 1.07136,1.04293 0,0.985203 -1.07809,1.469514 -1.79156,0.804825 z m 3.8597,-0.460148 c -0.50077,-0.393905 -0.54795,-1.205818 -0.0963,-1.657472 0.45165,-0.451654 1.26356,-0.404482 1.65748,0.0963 0.41702,0.530161 0.39705,1.048247 -0.058,1.503248 -0.455,0.454991 -0.97308,0.474957 -1.50324,0.05797 z m -11.61424,-0.274135 c -0.43535,-0.813441 0.0415,-1.592389 0.92301,-1.507763 0.68415,0.0657 1.04577,0.737676 0.71526,1.329198 -0.29293,0.524279 -1.38929,0.643784 -1.63827,0.178565 z m 15.49832,-0.630115 c -0.67781,-0.272374 -0.8182,-1.315153 -0.25314,-1.880213 0.32582,-0.325823 1.32065,-0.309005 1.61597,0.02734 0.40156,0.457301 0.45923,0.911726 0.17646,1.390427 -0.3464,0.586402 -0.85248,0.738459 -1.53929,0.462475 z m -18.80259,-0.30123 c -0.35482,-0.142771 -0.59076,-0.748555 -0.44227,-1.135522 0.0484,-0.126046 0.2605,-0.307799 0.4714,-0.403886 0.90175,-0.410865 1.65639,0.605784 0.98229,1.323334 -0.37518,0.399373 -0.49323,0.424589 -1.01142,0.216074 z m 21.9622,-1.610045 c -0.41702,-0.530162 -0.39705,-1.048248 0.058,-1.503248 0.74522,-0.745209 2.05459,-0.257497 2.05459,0.765298 0,0.186059 -0.14147,0.518132 -0.31437,0.73795 -0.24248,0.30827 -0.44808,0.399655 -0.89908,0.399655 -0.451,0 -0.65658,-0.09135 -0.89907,-0.399655 z m -25.7281,-0.42442 c -0.46691,-0.712601 0.34176,-1.410741 1.07647,-0.929336 0.20447,0.133985 0.36961,0.361476 0.36695,0.505539 -0.0144,0.784443 -1.01469,1.078121 -1.44342,0.423797 z m 29.06507,-1.699111 c -0.41702,-0.530162 -0.39706,-1.048247 0.058,-1.503238 0.45499,-0.454992 0.97308,-0.474958 1.50324,-0.05797 0.50078,0.393913 0.54795,1.205828 0.0963,1.657472 -0.45165,0.451654 -1.26355,0.404482 -1.65747,-0.0963 z m -31.97763,-0.2201 c -0.48463,-0.182996 -0.46395,-0.847652 0.0335,-1.074275 0.46462,-0.211701 0.83873,0.04242 0.83873,0.56967 0,0.438748 -0.41331,0.677872 -0.87216,0.504605 z m 18.11138,-1.022747 c -0.48313,-0.533847 -0.14078,-1.542776 0.52349,-1.542776 0.43895,0 0.89396,0.463212 0.89396,0.910077 0,0.76526 -0.92416,1.177773 -1.41745,0.632699 z m -3.91612,-0.247288 c -0.34669,-0.760904 0.57296,-1.484026 1.15154,-0.905456 0.28288,0.282893 0.31157,0.841193 0.0564,1.096428 -0.32921,0.329217 -1.02067,0.219902 -1.20787,-0.190972 z m 7.6467,-0.312907 c -0.22483,-0.159023 -0.34128,-0.39712 -0.34128,-0.697792 0,-0.762856 0.24102,-1.043194 0.89685,-1.043194 0.63021,0 0.84492,0.165688 0.99629,0.768842 0.19671,0.783737 -0.87183,1.453106 -1.55186,0.972144 z m -11.00074,-0.244582 c -0.36995,-0.207035 -0.33756,-0.845106 0.0491,-0.967836 0.37144,-0.117884 0.75113,0.158326 0.75113,0.546433 0,0.370299 -0.45934,0.612184 -0.80025,0.421402 z m 24.43323,-0.193234 c -0.18749,-0.09352 -0.44534,-0.356668 -0.573,-0.584885 -0.20835,-0.372467 -0.20835,-0.457385 0,-0.829853 0.63524,-1.135588 2.15686,-0.78418 2.15686,0.49811 0,0.759085 -0.87922,1.267923 -1.58386,0.916628 z M 8.1801486,47.657281 c -0.33803,-0.214218 -0.14345,-0.699988 0.28036,-0.699988 0.24649,0 0.39387,0.09776 0.42997,0.285184 0.0472,0.24542 -0.18887,0.544415 -0.42997,0.544415 -0.0418,0 -0.16787,-0.05835 -0.28036,-0.129611 z M 36.361209,47.360134 c -0.42635,-0.345242 -0.46054,-1.105996 -0.0691,-1.538485 0.40927,-0.452229 1.19007,-0.405707 1.58341,0.09434 0.41284,0.524845 0.39689,0.896728 -0.058,1.351569 -0.44291,0.442896 -0.98143,0.477135 -1.45634,0.09257 z m -17.9372,-0.424956 c -0.20838,-0.208392 -0.1003,-0.530237 0.16117,-0.479888 0.14598,0.02809 0.26543,0.146881 0.26543,0.263916 0,0.239482 -0.2676,0.374957 -0.4266,0.215972 z m 21.15957,-1.576439 c -0.4312,-0.40171 -0.44572,-1.245468 -0.0286,-1.662572 0.67128,-0.671283 1.82016,-0.114613 1.82016,0.881937 0,0.961472 -1.08842,1.435722 -1.79156,0.780635 z m 8.77986,-1.000462 c -0.17291,-0.219817 -0.31437,-0.517765 -0.31437,-0.66211 0,-0.144346 0.14146,-0.442293 0.31437,-0.662101 0.63039,-0.801422 1.96083,-0.352172 1.96083,0.662101 0,1.014282 -1.33044,1.463522 -1.96083,0.66211 z M 5.6797086,44.50513 c -0.1923,-0.1923 -0.0999,-0.353925 0.20223,-0.353925 0.16854,0 0.30336,0.101123 0.30336,0.227528 0,0.230913 -0.32086,0.311137 -0.50559,0.126397 z m 7.2600204,-1.656077 c -2.23051,-1.892279 -4.2699904,-4.753439 -5.3798204,-7.547273 -3.0837,-7.76276 -1.21107,-16.658549 4.7633804,-22.628024 3.48123,-3.4783236 7.80442,-5.4999206 12.76248,-5.9679366 3.04085,-0.287042 6.74971,0.236761 9.5396,1.347278 1.89178,0.753028 4.66683,2.4637346 5.53633,3.4129246 0.35466,0.387166 0.32521,0.379728 -0.45504,-0.114917 -2.5634,-1.6250846 -5.56949,-2.7487696 -8.39132,-3.1366906 -1.69774,-0.233392 -4.64399,-0.20019 -6.32167,0.07124 -7.03403,1.138029 -13.22936,6.0370736 -15.8161204,12.5067906 -1.74437,4.362872 -1.93314,9.172844 -0.54467,13.87874 0.74031,2.509093 2.7408904,6.014462 4.6136504,8.083929 0.46838,0.517577 0.81564,0.941054 0.77167,0.941054 -0.0439,0 -0.52927,-0.381207 -1.07847,-0.847115 z m 29.44178,-0.074 c -0.83578,-0.657435 -0.34918,-1.960841 0.73204,-1.960841 1.04586,0 1.51544,1.158665 0.77121,1.902903 -0.455,0.454991 -0.97309,0.474958 -1.50325,0.05798 z m 8.36853,-0.861151 c -0.55408,-0.645142 -0.4043,-1.401154 0.33855,-1.708858 0.43456,-0.179998 0.98699,-0.01716 1.24313,0.366444 0.21114,0.316207 0.11741,1.104582 -0.1613,1.356819 -0.36326,0.328745 -1.13237,0.32094 -1.42038,-0.01442 z m -27.80405,-0.211157 c -6.2806,-1.728108 -10.72914,-7.906032 -10.3359,-14.354036 0.0992,-1.626863 0.24344,-2.39183 0.73246,-3.885067 1.08503,-3.313159 3.60486,-6.290675 6.80122,-8.036538 2.07554,-1.133665 5.12247,-1.796355 7.04926,-1.533172 l 0.91008,0.124307 -0.83424,0.124651 c -4.90496,0.732898 -8.4575,3.08432 -10.90881,7.220543 -1.33384,2.250644 -2.01198,5.519123 -1.70306,8.208279 0.70831,6.165865 5.11479,10.847037 11.62595,12.3507 0.16685,0.03856 -0.27682,0.07061 -0.98592,0.07127 -0.80769,7.64e-4 -1.68589,-0.107911 -2.35104,-0.290935 z m 8.05479,0.08371 c -0.12329,-0.32127 0.0144,-0.51719 0.36346,-0.51719 0.37921,0 0.52523,0.26353 0.29785,0.537523 -0.24093,0.290294 -0.54571,0.280923 -0.66131,-0.02036 z m 3.17933,-1.161833 c -0.0311,-0.104281 -0.095,-0.308911 -0.14204,-0.454736 -0.1107,-0.343235 0.53263,-0.782652 0.95131,-0.649771 0.72652,0.230592 0.48139,1.294102 -0.29827,1.294102 -0.24996,0 -0.47991,-0.08531 -0.511,-0.189595 z m 10.22864,-1.630568 c -0.4225,-0.422487 -0.39927,-1.222145 0.0477,-1.642039 0.46568,-0.437487 1.08891,-0.420413 1.55183,0.04252 0.455,0.454992 0.47497,0.973078 0.058,1.503239 -0.39391,0.500777 -1.20582,0.54795 -1.65747,0.0963 z m -7.35279,-0.357724 c -0.17554,-0.128357 -0.28179,-0.393819 -0.28179,-0.704032 0,-0.82579 0.93038,-1.226774 1.46801,-0.632698 0.7466,0.82497 -0.28944,1.992468 -1.18622,1.33673 z m 15.69948,-0.124596 c -0.46001,-0.171173 -0.60566,-0.385863 -0.60868,-0.897208 -0.003,-0.480982 0.42491,-0.896483 0.91971,-0.893354 0.48784,0.0028 0.69724,0.15185 0.87615,0.622442 0.29202,0.768051 -0.4089,1.457716 -1.18718,1.16812 z M 1.7989986,36.70364 c -0.62808,-1.644765 -1.16076,-3.538353 -1.4678,-5.217753 -0.29188,-1.596525 -0.44454,-6.5591 -0.23179,-7.534986 0.0786,-0.360665 0.22667,-1.133542 0.32898,-1.717513 0.17297,-0.987226 0.90655,-3.707023 1.18643,-4.398726 0.41743,-1.031635 1.82155,-3.814576 2.41069,-4.777928 3.25733,-5.3263076 8.4651204,-9.5182086 14.3782204,-11.5734466 4.8797,-1.69605799 9.90539,-1.93473799 15.38739,-0.73077899 1.27067,0.27906399 3.8597,1.25645299 5.53633,2.09002699 4.93173,2.45191 9.14701,6.470677 11.58871,11.0484396 0.26699,0.500545 0.36248,0.741227 0.21221,0.53485 -1.61863,-2.223013 -2.24967,-3.001271 -3.36803,-4.153763 -4.24151,-4.3709736 -9.45764,-7.0948796 -15.76719,-8.2337676 -2.20416,-0.397855 -7.18939,-0.344938 -9.04716,0.09603 -2.87179,0.681664 -3.97305,1.021822 -5.6319,1.739594 -3.39581,1.469346 -5.71895,3.02426 -8.2201104,5.501838 -4.91977,4.8734056 -7.68595,11.2034076 -8.15079,18.6519426 -0.15757,2.524927 0.31791,6.239272 1.13116,8.836318 0.16867,0.538684 0.28279,1.003318 0.25357,1.032532 -0.0292,0.02922 -0.26723,-0.507593 -0.52892,-1.192913 z M 46.297849,36.19487 c -0.20476,-0.204773 -0.37231,-0.549148 -0.37231,-0.765298 0,-0.216141 0.16755,-0.560526 0.37231,-0.765299 0.20477,-0.204762 0.54916,-0.372298 0.7653,-0.372298 0.21615,0 0.56052,0.167536 0.76529,0.372298 0.20478,0.204773 0.37231,0.549157 0.37231,0.765299 0,0.505717 -0.63189,1.137604 -1.1376,1.137604 -0.21614,0 -0.56053,-0.167536 -0.7653,-0.372306 z m -7.12897,-0.455039 c -0.20477,-0.204773 -0.37231,-0.502719 -0.37231,-0.66211 0,-0.492331 0.58179,-1.089113 1.06177,-1.089113 0.47996,0 1.06175,0.596782 1.06175,1.089113 0,0.38657 -0.66496,1.034418 -1.06175,1.034418 -0.17444,0 -0.48469,-0.167545 -0.68946,-0.372308 z M 24.278789,34.74707 c -2.08441,-0.741107 -3.80287,-2.655106 -4.42602,-4.929662 -0.2374,-0.866506 -0.20671,-2.593426 0.0646,-3.635028 0.33743,-1.295468 0.93068,-2.307555 1.96548,-3.353161 1.42216,-1.437005 3.34053,-2.155065 5.17992,-1.938876 0.79339,0.09323 1.14556,0.35713 0.47663,0.35713 -0.50203,0 -1.60957,0.447223 -2.50973,1.013415 -3.04804,1.917175 -4.17556,5.606463 -2.68242,8.776994 0.74889,1.590202 2.48257,3.064198 4.46222,3.793833 0.52073,0.191933 0.5044,0.197269 -0.60235,0.196892 -0.72118,-2.55e-4 -1.42705,-0.10331 -1.92832,-0.281536 z m 29.52452,-0.05128 c -0.4579,-0.227028 -0.58021,-1.005797 -0.21526,-1.370741 0.51239,-0.512393 1.44098,-0.149871 1.436,0.560609 -0.005,0.681917 -0.63533,1.100369 -1.22074,0.810132 z m -23.11812,-0.248277 c -0.25379,-0.280431 -0.25506,-0.323833 -0.02,-0.682566 0.28832,-0.440031 0.57511,-0.485355 0.91574,-0.144732 0.28387,0.283873 0.30826,0.692833 0.0564,0.944758 -0.26835,0.268347 -0.64496,0.221882 -0.95206,-0.11746 z m 9.77986,-1.975735 c -0.42248,-0.422486 -0.39925,-1.222146 0.0477,-1.642041 0.73815,-0.693455 1.83315,-0.210926 1.83315,0.807804 0,1.001405 -1.18713,1.527946 -1.88084,0.834237 z m 6.93249,0.113764 c -0.13995,-0.104281 -0.29714,-0.406904 -0.3493,-0.672507 -0.0767,-0.390569 -0.0204,-0.557341 0.29443,-0.872163 0.73828,-0.73828 1.76816,-0.307412 1.76816,0.739751 0,0.830212 -1.02992,1.314087 -1.71329,0.804919 z m -14.43206,-0.45087 c -0.32206,-0.45981 -0.29641,-0.967724 0.0672,-1.331377 0.60077,-0.60077 1.66848,-0.163972 1.66848,0.682568 0,0.871313 -1.25206,1.339332 -1.73573,0.648809 z m 21.15773,-1.550544 c -0.28126,-0.338898 -0.12569,-0.884271 0.32399,-1.135848 0.37136,-0.207761 0.43406,-0.202849 0.72048,0.05637 0.34874,0.315604 0.41036,0.837994 0.13171,1.116646 -0.25089,0.250889 -0.9556,0.228622 -1.17618,-0.03714 z m -20.07505,-1.617603 c -0.15063,-0.08767 -0.34141,-0.336985 -0.42398,-0.554153 -0.33143,-0.871747 0.61623,-1.808756 1.40455,-1.388758 0.80601,0.429425 0.95513,1.145948 0.36193,1.739149 -0.39317,0.393169 -0.88786,0.468254 -1.3425,0.203762 z m 6.87193,-0.134823 c -0.67601,-0.676016 -0.14174,-1.971843 0.813,-1.971843 0.52691,0 1.15885,0.620349 1.15885,1.137605 0,0.92565 -1.32138,1.484705 -1.97185,0.834238 z m 7.089,0.04676 c -0.14712,-0.03837 -0.37071,-0.269346 -0.49685,-0.513286 -0.2036,-0.393698 -0.20395,-0.492643 -0.003,-0.880787 0.38195,-0.73862 1.36046,-0.752186 1.75003,-0.02423 0.24194,0.452058 0.18617,0.747677 -0.21715,1.15099 -0.36763,0.367622 -0.50848,0.404095 -1.03279,0.267357 z m 6.28921,-2.200586 c -0.4338,-0.43379 -0.0346,-1.095957 0.60596,-1.005147 0.2581,0.03658 0.36273,0.164377 0.39969,0.488145 0.0708,0.620321 -0.57191,0.950745 -1.00565,0.517002 z m -21.31791,-1.460488 c -0.34993,-0.386674 -0.31304,-1.018147 0.081,-1.385195 0.37974,-0.353764 0.42186,-0.361174 0.93823,-0.164849 0.71083,0.270261 0.85679,1.043911 0.30169,1.599007 -0.31316,0.313164 -1.01673,0.287079 -1.32085,-0.04893 z m 7.48466,-0.02602 c -0.49296,-0.492963 -0.45654,-1.137652 0.0921,-1.630558 0.47201,-0.424071 0.81468,-0.431019 1.32841,-0.02687 0.80141,0.630389 0.35217,1.960831 -0.6621,1.960831 -0.2528,0 -0.58987,-0.134824 -0.75841,-0.303359 z m 6.92497,-0.429067 c -0.79818,-0.881975 0.42526,-2.079931 1.26577,-1.239416 0.41382,0.413824 0.38072,0.827214 -0.0963,1.202434 -0.49288,0.387711 -0.84208,0.39875 -1.16947,0.03695 z m 6.45767,-2.023728 c -0.27637,-0.276369 -0.22701,-0.548431 0.13461,-0.741966 0.43816,-0.234485 0.89875,0.179819 0.64603,0.581124 -0.20963,0.332884 -0.54045,0.401041 -0.78064,0.160842 z m -23.21152,-0.307789 c -0.40799,-0.407989 -0.0903,-1.03142 0.52554,-1.03142 0.44948,0 0.72637,0.498119 0.50589,0.910076 -0.18002,0.336372 -0.74941,0.40336 -1.03143,0.121344 z m 8.45482,-0.737008 c -0.42797,-0.427964 -0.34287,-1.157976 0.18031,-1.546788 0.67342,-0.500454 1.49711,-0.02702 1.49711,0.860498 0,0.918278 -1.02576,1.337956 -1.67742,0.68629 z m 7.36128,-0.754051 c -0.62315,-0.688562 0.31489,-1.592366 1.00473,-0.968067 0.32587,0.294908 0.26683,0.770705 -0.1348,1.086422 -0.33814,0.265812 -0.54812,0.237239 -0.86993,-0.118355 z m -9.52819,-2.244632 c -0.33754,-0.372971 -0.31653,-0.870563 0.0523,-1.239419 0.39479,-0.394796 0.82252,-0.384665 1.20753,0.0286 0.39083,0.419497 0.39271,0.798041 0.006,1.184841 -0.37857,0.378565 -0.93633,0.390011 -1.26577,0.02598 z m 15.97876,-0.03861 c 0,-0.369652 0.35445,-0.317402 0.42824,0.06313 0.029,0.149673 -0.0484,0.252871 -0.18959,0.252871 -0.14071,0 -0.23865,-0.129686 -0.23865,-0.316001 z m -8.0144,-1.182358 c -0.11159,-0.07072 -0.17984,-0.291512 -0.15169,-0.490639 0.0409,-0.289357 0.14214,-0.362047 0.50416,-0.362047 0.50337,0 0.69172,0.384338 0.37523,0.765688 -0.20634,0.248616 -0.43046,0.27541 -0.7277,0.087 z m -10.76362,-1.110543 c -0.42546,-0.425462 -0.10493,-1.183106 0.50055,-1.183106 0.40656,0 0.68256,0.275989 0.68256,0.682561 0,0.406574 -0.276,0.682562 -0.68256,0.682562 -0.17519,0 -0.40044,-0.08191 -0.50055,-0.182017 z m -3.10926,-1.582343 c -0.0585,-0.0585 -0.10637,-0.236247 -0.10637,-0.394994 0,-0.212561 0.0899,-0.275855 0.34129,-0.24016 0.2231,0.03168 0.34128,0.152793 0.34128,0.349753 0,0.300873 -0.37499,0.486611 -0.5762,0.285401 z m 11.6019,-0.776285 c 0.0281,-0.145992 0.15163,-0.26544 0.27448,-0.26544 0.12286,0 0.24637,0.119448 0.27449,0.26544 0.0358,0.186241 -0.046,0.265441 -0.27449,0.265441 -0.22845,0 -0.31035,-0.07921 -0.27448,-0.265441 z"
     id="path1-5-6"
     sodipodi:nodetypes="ssssssssssscsssccsssssssssssssssssssssssscscsssccsssssssssssssssssssssssssssscscscssssssssssscssssssssssssssssssssssssssssssssssssscsssscsssssccssccssssssssssssssssscssssssscsssssssssssssssssssssssssssssssssssssssssscscsssccssssssscsscssccsssssscssscsssscscssccsssssssssssscssscssccsssssssssssssssscsscccssssssssssssssssssssssscss" /></svg>
